<svg xmlns="http://www.w3.org/2000/svg" width="16" height="16" viewBox="0 0 16 16" shape-rendering="crispEdges">
  <rect x="0" y="0" width="16" height="16" rx="3" fill="#1e40af"/>
  <!-- B -->
  <rect x="2" y="5" width="1" height="1" fill="#fff"/>
  <rect x="3" y="5" width="1" height="1" fill="#fff"/>
  <rect x="4" y="5" width="1" height="1" fill="#fff"/>
  <rect x="2" y="6" width="1" height="1" fill="#fff"/>
  <rect x="4" y="6" width="1" height="1" fill="#fff"/>
  <rect x="2" y="7" width="1" height="1" fill="#fff"/>
  <rect x="3" y="7" width="1" height="1" fill="#fff"/>
  <rect x="4" y="7" width="1" height="1" fill="#fff"/>
  <rect x="2" y="8" width="1" height="1" fill="#fff"/>
  <rect x="4" y="8" width="1" height="1" fill="#fff"/>
  <rect x="2" y="9" width="1" height="1" fill="#fff"/>
  <rect x="3" y="9" width="1" height="1" fill="#fff"/>
  <rect x="4" y="9" width="1" height="1" fill="#fff"/>
  <!-- R -->
  <rect x="6" y="5" width="1" height="1" fill="#fff"/>
  <rect x="7" y="5" width="1" height="1" fill="#fff"/>
  <rect x="6" y="6" width="1" height="1" fill="#fff"/>
  <rect x="8" y="6" width="1" height="1" fill="#fff"/>
  <rect x="6" y="7" width="1" height="1" fill="#fff"/>
  <rect x="7" y="7" width="1" height="1" fill="#fff"/>
  <rect x="6" y="8" width="1" height="1" fill="#fff"/>
  <rect x="8" y="8" width="1" height="1" fill="#fff"/>
  <rect x="6" y="9" width="1" height="1" fill="#fff"/>
  <rect x="8" y="9" width="1" height="1" fill="#fff"/>
  <!-- C -->
  <rect x="10" y="5" width="1" height="1" fill="#fff"/>
  <rect x="11" y="5" width="1" height="1" fill="#fff"/>
  <rect x="12" y="5" width="1" height="1" fill="#fff"/>
  <rect x="10" y="6" width="1" height="1" fill="#fff"/>
  <rect x="10" y="7" width="1" height="1" fill="#fff"/>
  <rect x="10" y="8" width="1" height="1" fill="#fff"/>
  <rect x="10" y="9" width="1" height="1" fill="#fff"/>
  <rect x="11" y="9" width="1" height="1" fill="#fff"/>
  <rect x="12" y="9" width="1" height="1" fill="#fff"/>
</svg>

