<svg xmlns="http://www.w3.org/2000/svg" width="32" height="32" viewBox="0 0 32 32" shape-rendering="crispEdges">
  <rect x="0" y="0" width="32" height="32" rx="6" fill="#1e40af"/>
  <!-- B -->
  <rect x="4" y="10" width="2" height="2" fill="#fff"/>
  <rect x="6" y="10" width="2" height="2" fill="#fff"/>
  <rect x="8" y="10" width="2" height="2" fill="#fff"/>
  <rect x="4" y="12" width="2" height="2" fill="#fff"/>
  <rect x="8" y="12" width="2" height="2" fill="#fff"/>
  <rect x="4" y="14" width="2" height="2" fill="#fff"/>
  <rect x="6" y="14" width="2" height="2" fill="#fff"/>
  <rect x="8" y="14" width="2" height="2" fill="#fff"/>
  <rect x="4" y="16" width="2" height="2" fill="#fff"/>
  <rect x="8" y="16" width="2" height="2" fill="#fff"/>
  <rect x="4" y="18" width="2" height="2" fill="#fff"/>
  <rect x="6" y="18" width="2" height="2" fill="#fff"/>
  <rect x="8" y="18" width="2" height="2" fill="#fff"/>
  <!-- R -->
  <rect x="12" y="10" width="2" height="2" fill="#fff"/>
  <rect x="14" y="10" width="2" height="2" fill="#fff"/>
  <rect x="12" y="12" width="2" height="2" fill="#fff"/>
  <rect x="16" y="12" width="2" height="2" fill="#fff"/>
  <rect x="12" y="14" width="2" height="2" fill="#fff"/>
  <rect x="14" y="14" width="2" height="2" fill="#fff"/>
  <rect x="12" y="16" width="2" height="2" fill="#fff"/>
  <rect x="16" y="16" width="2" height="2" fill="#fff"/>
  <rect x="12" y="18" width="2" height="2" fill="#fff"/>
  <rect x="16" y="18" width="2" height="2" fill="#fff"/>
  <!-- C -->
  <rect x="20" y="10" width="2" height="2" fill="#fff"/>
  <rect x="22" y="10" width="2" height="2" fill="#fff"/>
  <rect x="24" y="10" width="2" height="2" fill="#fff"/>
  <rect x="20" y="12" width="2" height="2" fill="#fff"/>
  <rect x="20" y="14" width="2" height="2" fill="#fff"/>
  <rect x="20" y="16" width="2" height="2" fill="#fff"/>
  <rect x="20" y="18" width="2" height="2" fill="#fff"/>
  <rect x="22" y="18" width="2" height="2" fill="#fff"/>
  <rect x="24" y="18" width="2" height="2" fill="#fff"/>
</svg>

